#!OML:ASF F:\VICON\USERDATA\INSTALL\rory3\rory3.ASF
:FULLY-SPECIFIED
:DEGREES
1390
root 2.35894 17.6857 -6.14699 -1.10987 8.35791 3.67631
lowerback 6.47109 -2.24928 -4.43403
upperback -3.19882 -3.20193 3.58106
thorax -6.55134 -1.29606 6.66318
lowerneck -15.2055 -4.3179 -12.8342
upperneck 20.7392 -6.30171 14.7433
head 9.97616 -2.38158 6.59894
rclavicle 7.35503e-015 2.8625e-014
rhumerus 90.0872 -70.019 -69.8816
rradius 69.9749
rwrist -31.6091
rhand -40.5053 0.5853
rfingers 7.12502
rthumb -13.4549 -28.9601
lclavicle 7.35503e-015 2.8625e-014
lhumerus 64.0348 71.4412 36.4021
lradius 55.3401
lwrist 43.5873
lhand -21.2983 23.0482
lfingers 7.12502
lthumb 5.08632 52.9672
rfemur -14.6384 1.4432 1.70667
rtibia 44.9045
rfoot -12.0407 -7.1032
rtoes 3.84609
lfemur 3.15325 3.27204 -24.2555
ltibia 19.2013
lfoot -16.9184 0.194381
ltoes -18.0293
1391
root 2.37384 17.6819 -6.12779 -1.05546 8.3094 3.75135
lowerback 6.37164 -2.27963 -4.61261
upperback -3.21876 -3.25576 3.59141
thorax -6.49842 -1.31641 6.77655
lowerneck -15.0426 -4.28369 -12.952
upperneck 20.8865 -6.29164 14.8811
head 10.0035 -2.37798 6.68084
rclavicle 4.76089e-014 -2.54444e-014
rhumerus 89.5362 -70.0216 -69.53
rradius 69.711
rwrist -31.3741
rhand -40.422 0.46097
rfingers 7.12502
rthumb -13.3745 -29.0898
lclavicle 4.76089e-014 -2.54444e-014
lhumerus 62.3238 71.3266 34.9621
lradius 55.3257
lwrist 43.4531
lhand -20.9739 23.3897
lfingers 7.12502
lthumb 5.39956 53.3009
rfemur -14.9166 1.3654 1.6226
rtibia 44.1638
rfoot -12.2007 -6.98112
rtoes 3.64418
lfemur 3.21123 3.38043 -24.3699
ltibia 19.1607
lfoot -16.9441 0.166311
ltoes -17.8909
1392
root 2.38703 17.6734 -6.10725 -1.09979 8.30563 3.72536
lowerback 6.29845 -2.31355 -4.62632
upperback -3.16225 -3.30081 3.57806
thorax -6.38922 -1.34447 6.76694
lowerneck -15.041 -4.32264 -12.9465
upperneck 21.1581 -6.38128 14.8865
head 10.1142 -2.41758 6.68234
rclavicle -8.74653e-015 -2.70347e-014
rhumerus 88.8027 -70.1707 -69.0422
rradius 69.4283
rwrist -30.9568
rhand -40.1483 0.316836
rfingers 7.12502
rthumb -13.1107 -29.251
lclavicle -8.74653e-015 -2.70347e-014
lhumerus 61.2791 71.2121 34.0994
lradius 55.1349
lwrist 43.027
lhand -20.3722 23.2483
lfingers 7.12502
lthumb 5.98044 53.1439
rfemur -15.0497 1.36755 1.66179
rtibia 43.3854
rfoot -12.5013 -7.22295
rtoes 2.45212
lfemur 3.41971 3.40957 -24.3676
ltibia 19.0043
lfoot -16.9461 0.176221
ltoes -18.0612
1393
root 2.40044 17.6746 -6.08703 -1.22832 8.32733 3.66247
lowerback 6.32116 -2.35478 -4.60502
upperback -3.06943 -3.3552 3.57199
thorax -6.2965 -1.37859 6.75048
lowerneck -15.1022 -4.38124 -12.9019
upperneck 21.3928 -6.49248 14.8687
head 10.2261 -2.46403 6.66314
rclavicle -4.47266e-014 1.27222e-014
rhumerus 87.7921 -70.2979 -68.2703
rradius 69.2275
rwrist -30.899
rhand -39.9062 0.0377159
rfingers 7.12502
rthumb -12.8773 -29.545
lclavicle -4.47266e-014 1.27222e-014
lhumerus 60.4658 71.1333 33.4303
lradius 54.866
lwrist 42.5524
lhand -20.465 22.7969
lfingers 7.12502
lthumb 5.89086 52.695
rfemur -15.1552 1.49794 1.7558
rtibia 42.5535
rfoot -12.4575 -7.42571
rtoes 1.52061
lfemur 3.70088 3.44324 -24.3125
ltibia 18.8556
lfoot -16.9567 0.164909
ltoes -18.0752
1394
root 2.41375 17.6839 -6.06721 -1.28658 8.36646 3.60693
lowerback 6.3236 -2.40881 -4.6298
upperback -3.01704 -3.42842 3.59941
thorax -6.22836 -1.41735 6.79881
lowerneck -15.1291 -4.40946 -12.8722
upperneck 21.5847 -6.5537 14.844
head 10.3081 -2.49072 6.64895
rclavicle -1.33186e-014 -3.18055e-015
rhumerus 86.2389 -70.368 -66.8862
rradius 68.9557
rwrist -30.9537
rhand -40.0082 0.254384
rfingers 7.12502
rthumb -12.9757 -29.3221
lclavicle -1.33186e-014 -3.18055e-015
lhumerus 59.8895 71.0314 33.1172
lradius 54.6248
lwrist 41.8892
lhand -20.8159 22.4737
lfingers 7.12502
lthumb 5.55209 52.3809
rfemur -15.3581 1.64655 1.82729
rtibia 41.6637
rfoot -11.96 -7.58354
rtoes 1.58845
lfemur 3.88135 3.42857 -24.28
ltibia 18.7498
lfoot -16.9479 0.208015
ltoes -18.2156
1395
root 2.42508 17.6861 -6.04359 -1.35553 8.34195 3.46015
lowerback 6.24789 -2.43413 -4.6032
upperback -2.91336 -3.45172 3.69579
thorax -6.06687 -1.4373 6.87897
lowerneck -15.1737 -4.46641 -12.9399
upperneck 21.6912 -6.6127 14.7967
head 10.3656 -2.5266 6.63948
rclavicle 2.41523e-014 -3.18055e-014
rhumerus 84.4678 -70.409 -65.2216
rradius 68.569
rwrist -30.568
rhand -40.3964 0.633948
rfingers 7.12502
rthumb -13.3499 -28.9184
lclavicle 2.41523e-014 -3.18055e-014
lhumerus 59.3452 70.9543 32.9414
lradius 54.3903
lwrist 41.1204
lhand -20.1448 22.9035
lfingers 7.12502
lthumb 6.20002 52.7928
rfemur -15.5085 1.87318 2.00577
rtibia 40.7315
rfoot -11.5509 -7.91979
rtoes 2.8909
lfemur 4.06105 3.34063 -24.1647
ltibia 18.6904
lfoot -16.9533 0.310505
ltoes -18.0964
1396
root 2.43388 17.6813 -6.02122 -1.43285 8.31922 3.29896
lowerback 6.14513 -2.46604 -4.54856
upperback -2.76343 -3.48104 3.78965
thorax -5.84159 -1.46527 6.9366
lowerneck -15.3138 -4.5414 -13.0562
upperneck 21.8125 -6.68936 14.8051
head 10.4545 -2.56535 6.65839
rclavicle 1.50082e-014 -1.90833e-014
rhumerus 83.2971 -70.404 -64.1718
rradius 68.1996
rwrist -30.2425
rhand -40.5076 0.776229
rfingers 7.12502
rthumb -13.4571 -28.769
lclavicle 1.50082e-014 -1.90833e-014
lhumerus 58.4534 70.9661 32.3879
lradius 54.1561
lwrist 40.6372
lhand -21.3179 22.3684
lfingers 7.12502
lthumb 5.06737 52.2878
rfemur -15.6025 2.06792 2.19042
rtibia 39.7672
rfoot -11.2498 -8.35043
rtoes 4.48995
lfemur 4.17477 3.30387 -24.0114
ltibia 18.7873
lfoot -17.0533 0.323756
ltoes -17.8167
1397
root 2.44123 17.6719 -6.00663 -1.40135 8.35094 3.26758
lowerback 6.09291 -2.51137 -4.58191
upperback -2.72028 -3.54076 3.83415
thorax -5.75244 -1.49761 7.00315
lowerneck -15.3426 -4.57719 -13.2597
upperneck 21.9363 -6.73413 14.9474
head 10.5257 -2.5871 6.74985
rclavicle 2.8625e-014 -1.59028e-014
rhumerus 81.8573 -70.393 -62.8907
rradius 67.9231
rwrist -30.185
rhand -40.4441 0.837966
rfingers 7.12502
rthumb -13.3959 -28.7113
lclavicle 2.8625e-014 -1.59028e-014
lhumerus 57.4929 70.885 31.7929
lradius 53.938
lwrist 40.4457
lhand -21.2539 22.2463
lfingers 7.12502
lthumb 5.1292 52.1642
rfemur -15.751 2.01805 2.2218
rtibia 38.7867
rfoot -11.2992 -8.55042
rtoes 3.9703
lfemur 4.07193 3.30315 -23.9973
ltibia 19.0246
lfoot -17.2063 0.354563
ltoes -17.9865
1398
root 2.44763 17.6556 -5.99156 -1.40776 8.35278 3.27561
lowerback 6.14477 -2.53203 -4.63611
upperback -2.73513 -3.57421 3.84827
thorax -5.78903 -1.50993 7.05678
lowerneck -15.2597 -4.56826 -13.3732
upperneck 22.0226 -6.73983 15.0584
head 10.55 -2.59084 6.81712
rclavicle 5.1684e-015 -2.38542e-014
rhumerus 79.7927 -70.4064 -60.9833
rradius 67.6364
rwrist -30.1797
rhand -40.2898 0.792731
rfingers 7.12502
rthumb -13.2472 -28.7663
lclavicle 5.1684e-015 -2.38542e-014
lhumerus 56.4053 70.6453 31.047
lradius 53.6924
lwrist 40.5504
lhand -20.8072 22.7455
lfingers 7.12502
lthumb 5.56053 52.6525
rfemur -15.8421 2.00913 2.21064
rtibia 37.8473
rfoot -12.359 -8.3385
rtoes 0.571844
lfemur 4.02021 3.27072 -24.0316
ltibia 19.2449
lfoot -17.3537 0.435255
ltoes -18.0333
1399
root 2.4547 17.6462 -5.97069 -1.46744 8.31663 3.25404
lowerback 6.14705 -2.54134 -4.61071
upperback -2.664 -3.58565 3.82914
thorax -5.71555 -1.52184 7.01918
lowerneck -15.1944 -4.59608 -13.3326
upperneck 21.9678 -6.78466 15.0277
head 10.5223 -2.61395 6.78841
rclavicle 2.50469e-014 -4.45278e-014
rhumerus 77.7807 -70.473 -59.1223
rradius 67.2945
rwrist -30.0681
rhand -40.1933 0.742609
rfingers 7.12502
rthumb -13.1541 -28.8225
lclavicle 2.50469e-014 -4.45278e-014
lhumerus 55.743 70.4312 30.6922
lradius 53.4518
lwrist 40.6122
lhand -20.7992 23.3043
lfingers 7.12502
lthumb 5.56821 53.2111
rfemur -15.9496 2.12878 2.22957
rtibia 36.9627
rfoot -12.0562 -8.59434
rtoes 1.26892
lfemur 4.12594 3.19576 -24.0474
ltibia 19.3352
lfoot -17.503 0.634844
ltoes -18.3098
1400
root 2.46014 17.6447 -5.94925 -1.4867 8.27965 3.31493
lowerback 6.10609 -2.56476 -4.68333
upperback -2.56029 -3.62416 3.79292
thorax -5.57438 -1.54756 7.01712
lowerneck -15.2141 -4.64572 -13.239
upperneck 21.9028 -6.8426 14.9156
head 10.5049 -2.64394 6.71611
rclavicle 2.97183e-014 -3.65764e-014
rhumerus 76.1662 -70.4356 -57.7271
rradius 66.9881
rwrist -29.6848
rhand -40.1605 0.412834
rfingers 7.12502
rthumb -13.1225 -29.1543
lclavicle 2.97183e-014 -3.65764e-014
lhumerus 55.1055 70.2633 30.3994
lradius 53.2599
lwrist 40.592
lhand -21.6704 23.6004
lfingers 7.12502
lthumb 4.727 53.5276
rfemur -16.111 2.17926 2.18291
rtibia 36.0865
rfoot -11.6978 -8.83175
rtoes 0.948086
lfemur 4.19033 3.10142 -24.1572
ltibia 19.4418
lfoot -17.5958 0.873045
ltoes -18.4807
1401
root 2.46377 17.6461 -5.92967 -1.47976 8.27789 3.40489
lowerback 6.13825 -2.60918 -4.83017
upperback -2.51625 -3.69786 3.79102
thorax -5.52657 -1.58201 7.10566
lowerneck -15.2989 -4.68665 -13.1918
upperneck 21.9806 -6.88456 14.8046
head 10.5507 -2.66763 6.66206
rclavicle 1.67973e-014 -2.22639e-014
rhumerus 74.6341 -70.2183 -56.448
rradius 66.6983
rwrist -29.1817
rhand -40.1826 0.0130139
rfingers 7.12502
rthumb -13.1438 -29.5527
lclavicle 1.67973e-014 -2.22639e-014
lhumerus 54.0352 70.0844 29.7154
lradius 53.0808
lwrist 40.7617
lhand -22.1613 23.8496
lfingers 7.12502
lthumb 4.25298 53.7869
rfemur -16.3611 2.23053 2.1093
rtibia 35.21
rfoot -11.2068 -9.21892
rtoes 0.631056
lfemur 4.25591 3.02253 -24.287
ltibia 19.4752
lfoot -17.6612 1.04678
ltoes -18.5479
1402
root 2.46346 17.6354 -5.91216 -1.5507 8.23042 3.25958
lowerback 6.19388 -2.64248 -4.77649
upperback -2.45179 -3.73606 3.86172
thorax -5.48273 -1.60518 7.15478
lowerneck -15.322 -4.70902 -13.2222
upperneck 22.0489 -6.91328 14.8015
head 10.5859 -2.68288 6.66543
rclavicle 3.62782e-014 -4.77083e-015
rhumerus 73.0417 -70.0044 -55.0857
rradius 66.3884
rwrist -28.7262
rhand -40.2127 -0.0835821
rfingers 7.12502
rthumb -13.1728 -29.6474
lclavicle 3.62782e-014 -4.77083e-015
lhumerus 53.358 69.9263 29.4438
lradius 52.8688
lwrist 40.8949
lhand -21.0736 23.7778
lfingers 7.12502
lthumb 5.30333 53.6914
rfemur -16.4467 2.31878 2.33088
rtibia 34.3325
rfoot -11.1319 -9.52308
rtoes 3.50557
lfemur 4.37904 2.95876 -24.1386
ltibia 19.491
lfoot -17.751 1.18942
ltoes -18.8163
